<svg version="1.1" id="Layer_1" xmlns="http://www.w3.org/2000/svg" xmlns:xlink="http://www.w3.org/1999/xlink" x="0px" y="0px"
	 width="100%" viewBox="0 0 1024 1024" enable-background="new 0 0 1024 1024" xml:space="preserve">
<path fill="#FDFDFD" opacity="1.000000" stroke="none" 
	d="
M500.000000,1025.000000 
	C333.333344,1025.000000 167.166672,1025.000000 1.000000,1025.000000 
	C1.000000,683.666687 1.000000,342.333344 1.000000,1.000000 
	C342.333344,1.000000 683.666687,1.000000 1025.000000,1.000000 
	C1025.000000,342.333344 1025.000000,683.666687 1025.000000,1025.000000 
	C850.166687,1025.000000 675.333313,1025.000000 500.000000,1025.000000 
M534.031067,584.483826 
	C534.031067,588.398560 534.031067,592.313354 534.031067,596.807495 
	C545.055725,596.807495 555.191895,596.895569 565.324890,596.757568 
	C568.675903,596.711914 570.108704,597.732422 570.067505,601.303345 
	C569.908142,615.130981 569.858154,628.962708 570.028137,642.789673 
	C570.077393,646.796997 568.523926,648.072266 564.742004,647.996033 
	C556.247864,647.824707 547.744873,648.036621 539.253845,647.796204 
	C535.514526,647.690369 533.817627,648.561218 533.996155,652.742493 
	C534.308533,660.059753 533.817566,667.412292 534.157166,674.727051 
	C534.375000,679.418884 533.066345,681.195984 528.085999,681.018494 
	C517.601807,680.644897 507.094879,680.960999 496.599945,680.810852 
	C493.243347,680.762817 491.914062,681.787109 491.941986,685.357300 
	C492.094421,704.850281 492.122192,724.345581 491.971497,743.838440 
	C491.941101,747.773010 493.228638,749.004578 497.124115,748.978394 
	C518.949890,748.831421 540.777771,748.821838 562.603271,748.980225 
	C566.173035,749.006165 567.215881,747.891907 567.153503,744.444214 
	C566.966858,734.117310 567.222534,723.781128 566.953308,713.457703 
	C566.847107,709.385132 568.577148,708.202698 572.203125,708.286438 
	C578.188965,708.424683 584.192078,708.207458 590.160583,708.579163 
	C594.476196,708.847839 596.032410,707.578918 595.856140,703.035217 
	C595.503296,693.939453 595.751465,684.820312 595.751465,675.649231 
	C596.925232,675.398560 597.552307,675.149048 598.180054,675.147583 
	C615.339722,675.106445 632.499634,675.126099 649.658997,675.034668 
	C652.399414,675.020081 653.028992,676.300964 653.009949,678.716370 
	C652.946899,686.712646 653.113281,694.711670 652.973572,702.705811 
	C652.917664,705.902710 653.994019,707.188904 657.276245,707.107605 
	C663.269775,706.959106 669.278931,707.315979 675.266113,707.076050 
	C679.086365,706.922974 680.126648,708.399414 680.068604,712.025635 
	C679.897949,722.685486 680.140930,733.351624 679.989075,744.012024 
	C679.937683,747.618469 681.041504,748.997803 684.821899,748.976501 
	C708.314026,748.844055 731.807556,748.852051 755.299805,748.975403 
	C758.820862,748.993835 759.868530,747.806763 759.844788,744.357910 
	C759.709351,724.698547 759.709839,705.037598 759.818420,685.377991 
	C759.837585,681.910950 758.672913,680.734314 755.189087,680.794067 
	C744.195374,680.982727 733.194397,680.763184 722.201355,680.970520 
	C718.237671,681.045227 716.403687,679.967041 716.487549,675.664490 
	C716.636658,668.012939 716.185547,660.350403 716.298767,652.697144 
	C716.354187,648.952393 714.940552,647.784058 711.308655,647.875549 
	C703.149780,648.080994 694.974915,647.740051 686.821289,648.032654 
	C682.197937,648.198547 680.731934,646.551575 680.854858,641.973938 
	C681.136780,631.484619 680.943665,620.982361 680.937012,610.485352 
	C680.925720,596.707458 680.928345,596.708313 694.772095,596.712830 
	C701.716309,596.715027 708.660583,596.713257 716.156738,596.713257 
	C716.156738,587.047791 716.274170,578.086670 716.100098,569.131104 
	C716.028503,565.448486 717.396729,564.077209 721.057495,564.125061 
	C731.718384,564.264526 742.382324,564.204712 753.044861,564.170166 
	C755.140137,564.163330 757.234619,563.919800 759.374390,563.782654 
	C759.374390,541.682739 759.374390,520.113953 759.374390,498.512848 
	C758.314819,498.283966 757.679260,498.027313 757.043457,498.026611 
	C732.552490,497.999329 708.061401,498.037842 683.570801,497.939880 
	C680.143433,497.926178 679.874512,499.756226 679.904175,502.387390 
	C680.015015,512.215210 679.874512,522.048523 680.153259,531.870544 
	C680.266418,535.860596 679.224426,537.680786 674.914673,537.479248 
	C669.263062,537.215027 663.581482,537.623352 657.925659,537.406860 
	C654.311951,537.268616 652.858887,538.322510 652.991699,542.182861 
	C653.266357,550.170227 652.971191,558.175842 653.164490,566.167786 
	C653.254150,569.872559 651.856873,571.069702 648.200317,571.033142 
	C632.374023,570.874939 616.544556,570.857117 600.718201,571.000671 
	C597.009949,571.034241 595.702759,569.735596 595.771912,566.091858 
	C595.923645,558.098816 595.724426,550.099670 595.818298,542.104797 
	C595.854309,539.035889 594.871948,537.527527 591.554504,537.577759 
	C585.402100,537.671082 579.222473,537.141418 573.097961,537.541626 
	C567.969849,537.876709 566.857544,535.717102 566.994751,531.152100 
	C567.259827,522.329468 567.088135,513.493835 567.107239,504.663605 
	C567.128967,498.211700 567.121216,498.211700 560.831177,498.362671 
	C539.515869,498.532898 518.197937,498.814789 496.885956,498.590637 
	C492.527435,498.544800 491.869690,499.960571 491.895660,503.604095 
	C492.027496,522.097412 492.121552,540.592773 491.953308,559.084961 
	C491.917023,563.073425 493.143402,564.285767 497.052917,564.207214 
	C507.545197,563.996338 518.045471,564.219666 528.540771,564.103271 
	C532.401672,564.060364 534.411804,565.121643 534.089355,569.498840 
	C533.747498,574.138367 534.024414,578.823547 534.031067,584.483826 
z"/>
<text x="512" y="900" text-anchor="middle" font-family="Arial, sans-serif" font-size="120" font-weight="bold" fill="#F9AF07">LITE</text>
</svg>